<svg id="visual" viewBox="0 0 1920 1080" width="1920" height="1080" xmlns="http://www.w3.org/2000/svg" xmlns:xlink="http://www.w3.org/1999/xlink" version="1.1"><rect x="0" y="0" width="1920" height="1080" fill="#001220"></rect><path d="M0 715L45.7 709.8C91.3 704.7 182.7 694.3 274.2 703.7C365.7 713 457.3 742 548.8 739.5C640.3 737 731.7 703 823 690C914.3 677 1005.7 685 1097 704.7C1188.3 724.3 1279.7 755.7 1371.2 762.2C1462.7 768.7 1554.3 750.3 1645.8 746.3C1737.3 742.3 1828.7 752.7 1874.3 757.8L1920 763L1920 1081L1874.3 1081C1828.7 1081 1737.3 1081 1645.8 1081C1554.3 1081 1462.7 1081 1371.2 1081C1279.7 1081 1188.3 1081 1097 1081C1005.7 1081 914.3 1081 823 1081C731.7 1081 640.3 1081 548.8 1081C457.3 1081 365.7 1081 274.2 1081C182.7 1081 91.3 1081 45.7 1081L0 1081Z" fill="#fa7268"></path><path d="M0 760L45.7 768.7C91.3 777.3 182.7 794.7 274.2 791C365.7 787.3 457.3 762.7 548.8 767.2C640.3 771.7 731.7 805.3 823 803.8C914.3 802.3 1005.7 765.7 1097 747.5C1188.3 729.3 1279.7 729.7 1371.2 744.7C1462.7 759.7 1554.3 789.3 1645.8 806.7C1737.3 824 1828.7 829 1874.3 831.5L1920 834L1920 1081L1874.3 1081C1828.7 1081 1737.3 1081 1645.8 1081C1554.3 1081 1462.7 1081 1371.2 1081C1279.7 1081 1188.3 1081 1097 1081C1005.7 1081 914.3 1081 823 1081C731.7 1081 640.3 1081 548.8 1081C457.3 1081 365.7 1081 274.2 1081C182.7 1081 91.3 1081 45.7 1081L0 1081Z" fill="#ef5f67"></path><path d="M0 883L45.7 878.5C91.3 874 182.7 865 274.2 864.3C365.7 863.7 457.3 871.3 548.8 861.7C640.3 852 731.7 825 823 821.7C914.3 818.3 1005.7 838.7 1097 853.8C1188.3 869 1279.7 879 1371.2 872.7C1462.7 866.3 1554.3 843.7 1645.8 840.2C1737.3 836.7 1828.7 852.3 1874.3 860.2L1920 868L1920 1081L1874.3 1081C1828.7 1081 1737.3 1081 1645.8 1081C1554.3 1081 1462.7 1081 1371.2 1081C1279.7 1081 1188.3 1081 1097 1081C1005.7 1081 914.3 1081 823 1081C731.7 1081 640.3 1081 548.8 1081C457.3 1081 365.7 1081 274.2 1081C182.7 1081 91.3 1081 45.7 1081L0 1081Z" fill="#e34c67"></path><path d="M0 877L45.7 893.7C91.3 910.3 182.7 943.7 274.2 956.7C365.7 969.7 457.3 962.3 548.8 957.7C640.3 953 731.7 951 823 949.5C914.3 948 1005.7 947 1097 939.2C1188.3 931.3 1279.7 916.7 1371.2 921.8C1462.7 927 1554.3 952 1645.8 949.7C1737.3 947.3 1828.7 917.7 1874.3 902.8L1920 888L1920 1081L1874.3 1081C1828.7 1081 1737.3 1081 1645.8 1081C1554.3 1081 1462.7 1081 1371.2 1081C1279.7 1081 1188.3 1081 1097 1081C1005.7 1081 914.3 1081 823 1081C731.7 1081 640.3 1081 548.8 1081C457.3 1081 365.7 1081 274.2 1081C182.7 1081 91.3 1081 45.7 1081L0 1081Z" fill="#d53867"></path><path d="M0 996L45.7 995.3C91.3 994.7 182.7 993.3 274.2 988.5C365.7 983.7 457.3 975.3 548.8 978.3C640.3 981.3 731.7 995.7 823 999.8C914.3 1004 1005.7 998 1097 988C1188.3 978 1279.7 964 1371.2 968C1462.7 972 1554.3 994 1645.8 1003.2C1737.3 1012.3 1828.7 1008.7 1874.3 1006.8L1920 1005L1920 1081L1874.3 1081C1828.7 1081 1737.3 1081 1645.8 1081C1554.3 1081 1462.7 1081 1371.2 1081C1279.7 1081 1188.3 1081 1097 1081C1005.7 1081 914.3 1081 823 1081C731.7 1081 640.3 1081 548.8 1081C457.3 1081 365.7 1081 274.2 1081C182.7 1081 91.3 1081 45.7 1081L0 1081Z" fill="#c62368"></path></svg>